<svg width="82" height="82" fill="none" xmlns="http://www.w3.org/2000/svg"><g clip-path="url(#a)" fill="#fff"><path d="M41.3715.407C19.0808.407.9483 18.5413.9483 40.8302c0 22.289 18.1325 40.4232 40.4232 40.4232s40.4232-18.1342 40.4232-40.4232C81.7947 18.5413 63.6622.407 41.3715.407Zm0 77.4779c-20.432 0-37.0546-16.6226-37.0546-37.0547 0-20.432 16.6226-37.0546 37.0546-37.0546 20.4321 0 37.0547 16.6226 37.0547 37.0546 0 20.4321-16.6226 37.0547-37.0547 37.0547Z"/><path d="M57.4419 39.414 33.8618 24.2553c-.5165-.3371-1.1843-.3553-1.7172-.0625a1.6821 1.6821 0 0 0-.8784 1.4787v30.3174c0 .6168.3355 1.1827.8784 1.4788.25.1366.5296.2056.8059.2056.3158 0 .635-.0889.9113-.2681l23.5801-15.1587a1.687 1.687 0 0 0 .7731-1.4163 1.687 1.687 0 0 0-.7731-1.4162ZM34.6347 52.9032V28.7573l18.7807 12.0729-18.7807 12.073Z"/></g><defs><clipPath id="a"><path fill="#fff" d="M.9483.407h80.8464v80.8464H.9483z"/></clipPath></defs></svg>